# xmcd
#
# Track frame offsets: 
#        150
#        11847
#        23410
#        36450
#        49037
#        59415
#        73135
#        86780
#        98827
#        108942
#        120940
#        133807
#        147402
#        157002
#        168912
#        180152
#        192572
#        206402
#        220365
#        233307
#
# Disc length: 3354 seconds
#
# Revision: 5
# Processed by: cddbd v1.5.2PL0 Copyright (c) Steve Scherf et al.
# Submitted via: ExactAudioCopyFreeDBPlugin 1.0
#
DISCID=160d1814
DTITLE=Various Artist - Sweet Dreams Of Country - D1
DYEAR=1990
DGENRE=Country
TTITLE0=Patsy Cline - Sweet Dreams (Of You)
TTITLE1=Eddy Arnold - Welcome To My World
TTITLE2=Patti Page - Allegheny Moon
TTITLE3=Jim Reeves - Blue Side Of Lonesome
TTITLE4=Loretta Lynn - I Wanna Be Free
TTITLE5=Bobby Goldsboro - And I Love You So
TTITLE6=Elvis Presley - There Goes My Everything
TTITLE7=Brenda Lee - I'm Sorry
TTITLE8=Slim Whitman - The Twelfth Of Never
TTITLE9=Skeeter Davis - The End Of The World
TTITLE10=Conway Twitty - I Can't Stop Loving You
TTITLE11=Patsy Cline and Jim Reeves - Have You Ever Been Lonely (Have Yo
TTITLE11=u Ever Been Blue)
TTITLE12=Eddy Arnold - Misty Blue
TTITLE13=Patti Page - Old Cape Cod
TTITLE14=Slim Whitman - My Happiness
TTITLE15=Floyd Cramer - Somwhere, My Love (Lara's Theme From ''Doctor 
TTITLE15=Zhivago'')
TTITLE16=Patsy Cline - You Belong To Me
TTITLE17=Jim Reeves - Auf Wiederseh'n Sweetheart
TTITLE18=Elvis Presley - Love Letters
TTITLE19=Dottie West - With Pen In Hand
EXTD=
EXTT0=
EXTT1=
EXTT2=
EXTT3=
EXTT4=
EXTT5=
EXTT6=
EXTT7=
EXTT8=
EXTT9=
EXTT10=
EXTT11=
EXTT12=
EXTT13=
EXTT14=
EXTT15=
EXTT16=
EXTT17=
EXTT18=
EXTT19=
PLAYORDER=
